<?xml version="1.0" standalone="no"?>
<svg xmlns:xlink="http://www.w3.org/1999/xlink" id="wave" style="transform:rotate(0deg); transition: 0.3s" viewBox="0 0 1440 490" version="1.1" xmlns="http://www.w3.org/2000/svg"><defs><linearGradient id="sw-gradient-0" x1="0" x2="0" y1="1" y2="0"><stop stop-color="rgba(243, 106, 62, 1)" offset="0%"/><stop stop-color="rgba(255, 179, 11, 1)" offset="100%"/></linearGradient></defs><path style="transform:translate(0, 0px); opacity:1" fill="url(#sw-gradient-0)" d="M0,196L26.7,204.2C53.3,212,107,229,160,261.3C213.3,294,267,343,320,310.3C373.3,278,427,163,480,163.3C533.3,163,587,278,640,269.5C693.3,261,747,131,800,89.8C853.3,49,907,98,960,171.5C1013.3,245,1067,343,1120,359.3C1173.3,376,1227,310,1280,236.8C1333.3,163,1387,82,1440,106.2C1493.3,131,1547,261,1600,269.5C1653.3,278,1707,163,1760,163.3C1813.3,163,1867,278,1920,277.7C1973.3,278,2027,163,2080,147C2133.3,131,2187,212,2240,228.7C2293.3,245,2347,196,2400,204.2C2453.3,212,2507,278,2560,302.2C2613.3,327,2667,310,2720,310.3C2773.3,310,2827,327,2880,285.8C2933.3,245,2987,147,3040,89.8C3093.3,33,3147,16,3200,49C3253.3,82,3307,163,3360,220.5C3413.3,278,3467,310,3520,334.8C3573.3,359,3627,376,3680,326.7C3733.3,278,3787,163,3813,106.2L3840,49L3840,490L3813.3,490C3786.7,490,3733,490,3680,490C3626.7,490,3573,490,3520,490C3466.7,490,3413,490,3360,490C3306.7,490,3253,490,3200,490C3146.7,490,3093,490,3040,490C2986.7,490,2933,490,2880,490C2826.7,490,2773,490,2720,490C2666.7,490,2613,490,2560,490C2506.7,490,2453,490,2400,490C2346.7,490,2293,490,2240,490C2186.7,490,2133,490,2080,490C2026.7,490,1973,490,1920,490C1866.7,490,1813,490,1760,490C1706.7,490,1653,490,1600,490C1546.7,490,1493,490,1440,490C1386.7,490,1333,490,1280,490C1226.7,490,1173,490,1120,490C1066.7,490,1013,490,960,490C906.7,490,853,490,800,490C746.7,490,693,490,640,490C586.7,490,533,490,480,490C426.7,490,373,490,320,490C266.7,490,213,490,160,490C106.7,490,53,490,27,490L0,490Z"/></svg>