<svg width="351" height="360" viewBox="0 0 351 360" fill="none" xmlns="http://www.w3.org/2000/svg">
<line y1="-0.5" x2="108.784" y2="-0.5" transform="matrix(-0.487203 0.873289 0.873289 0.487203 303 266)" stroke="#101820FF"/>
<rect y="-1" width="227" height="362" fill="#101820FF"/>
<path d="M340.102 160.992C346.875 173.116 346.875 187.884 340.102 200.008L261.67 340.404C241.565 376.394 186.75 362.121 186.75 320.896L186.75 40.1037C186.75 -1.12085 241.565 -15.3938 261.67 20.5956L340.102 160.992Z" fill="#101820FF"/>
<path d="M246.32 3.49179C246.548 4.00417 246.949 4.40641 247.336 4.80133C247.641 5.11312 247.884 5.51077 248.152 5.85685C248.706 6.5706 249.238 7.29413 249.907 7.90656" stroke="#101820FF" stroke-width="3" stroke-linecap="round"/>
<path d="M254.755 11.6906H254.794" stroke="#101820FF" stroke-width="3" stroke-linecap="round"/>
<path d="M253.769 10.0351L253.73 9.9957" stroke="#101820FF" stroke-width="3" stroke-linecap="round"/>
<path d="M251.956 8.14306C251.905 8.13016 251.917 8.06734 251.917 8.02481" stroke="#101820FF" stroke-width="3" stroke-linecap="round"/>
<path d="M235.164 1.99391C235.402 1.99391 235.641 2.00987 235.874 1.96326C236.238 1.89034 236.618 1.98113 236.988 1.89756C237.411 1.80216 237.898 1.93189 238.318 1.98515C239.512 2.13651 240.781 2.03333 241.984 2.03333C242.276 2.03333 242.568 2.03333 242.859 2.03333C243.184 2.03333 243.481 2.09021 243.797 2.10998C244.205 2.13548 244.577 2.191 244.988 2.191C245.715 2.191 246.442 2.191 247.169 2.191C247.508 2.191 247.843 2.30925 248.181 2.30925C248.285 2.30925 248.698 2.2445 248.781 2.31582C248.882 2.40279 248.724 2.59055 248.724 2.68591C248.724 2.8668 248.746 3.03008 248.763 3.2071C248.794 3.51827 249.141 3.72712 249.315 3.94508C249.358 3.99915 249.46 4.0528 249.471 4.12684C249.489 4.25249 249.431 4.42144 249.521 4.5254C249.705 4.73796 249.916 4.90916 250.086 5.12761C250.282 5.38002 250.643 5.55678 250.804 5.83494C250.925 6.04352 250.988 6.26127 251.128 6.4481" stroke="#101820FF" stroke-width="3" stroke-linecap="round"/>
<path d="M251.838 7.82773C251.975 7.95375 252.154 8.06935 252.232 8.24599C252.282 8.35799 252.502 8.49783 252.311 8.49783" stroke="#101820FF" stroke-width="3" stroke-linecap="round"/>
<path d="M250.774 5.38383C250.762 5.23027 250.682 5.10206 250.634 4.959C250.605 4.87558 250.622 4.78631 250.607 4.7006C250.592 4.60952 250.526 4.54247 250.498 4.45533C250.411 4.1848 250.315 3.87878 250.143 3.64946" stroke="#101820FF" stroke-width="3" stroke-linecap="round"/>
<path d="M245.649 3.96481C244.795 4.19108 243.887 4.20132 243.008 4.20132" stroke="#101820FF" stroke-width="3" stroke-linecap="round"/>
<path d="M235.624 358.965C235.751 358.981 235.932 359.245 236.016 359.339C236.132 359.469 236.464 359.523 236.617 359.536C236.949 359.566 237.259 359.426 237.583 359.383C237.882 359.342 238.184 359.306 238.484 359.271C238.889 359.224 239.304 359.109 239.712 359.109C239.852 359.109 240.012 359.088 240.151 359.111C240.387 359.15 240.614 359.238 240.864 359.255C241.177 359.276 241.474 359.361 241.79 359.361C242.097 359.361 242.404 359.361 242.711 359.361C243.426 359.361 244.14 359.396 244.845 359.297C245.282 359.235 245.722 359.253 246.163 359.253C246.402 359.253 246.629 359.189 246.866 359.181C247.061 359.174 247.284 359.154 247.477 359.117C247.764 359.062 248.062 359.145 248.348 359.073" stroke="#101820FF" stroke-width="3" stroke-linecap="round"/>
<path d="M255.284 347.5C255.123 347.518 254.935 347.987 254.897 348.127C254.821 348.407 254.652 348.75 254.494 348.988C254.392 349.14 254.293 349.32 254.152 349.439C254.047 349.527 253.91 349.585 253.855 349.72C253.741 349.999 253.48 350.342 253.27 350.553C252.877 350.946 252.541 351.275 252.345 351.805C252.29 351.954 252.132 352.141 252.03 352.262C251.963 352.341 251.918 352.394 251.904 352.496C251.886 352.617 251.659 352.63 251.654 352.755C251.65 352.854 251.599 352.943 251.546 353.027C251.481 353.13 251.465 353.247 251.403 353.35C251.272 353.568 251.141 353.8 251.023 354.025C250.838 354.379 250.396 354.719 250.396 355.136C250.396 355.357 250.396 355.48 250.272 355.661C250.125 355.876 250.04 356.089 249.941 356.33C249.822 356.617 249.76 356.912 249.641 357.2C249.595 357.314 249.483 357.661 249.39 357.707" stroke="#101820FF" stroke-width="3" stroke-linecap="round"/>
<path d="M249.39 354.437C249.097 354.562 248.84 354.769 248.577 354.946C247.878 355.417 247.152 355.837 246.371 356.158C245.854 356.37 245.317 356.529 244.817 356.783C244.599 356.894 244.401 357.029 244.162 357.096C243.716 357.222 243.236 357.215 242.777 357.204C242.567 357.199 242.882 357.007 242.926 356.989C243.67 356.682 244.567 356.809 245.352 356.809C246.133 356.809 246.963 356.893 247.729 356.729C247.911 356.69 247.982 356.576 248.116 356.453C248.498 356.103 248.91 355.802 249.346 355.523C249.614 355.352 249.823 355.136 250.075 354.96C250.218 354.86 250.467 354.885 250.63 354.85C250.837 354.805 251.062 354.826 251.259 354.76" stroke="#101820FF" stroke-width="3" stroke-linecap="round"/>
<path d="M247.999 358.191C248.064 358.244 248.148 358.271 248.217 358.318C248.261 358.348 248.302 358.381 248.345 358.412C248.38 358.437 248.419 358.458 248.455 358.48C248.51 358.514 248.556 358.554 248.616 358.581C248.648 358.596 248.69 358.619 248.727 358.619" stroke="#101820FF" stroke-width="3" stroke-linecap="round"/>
<path d="M251.43 352.85C251.438 352.853 251.452 352.89 251.46 352.899C251.481 352.926 251.5 352.954 251.524 352.979C251.57 353.025 251.622 353.064 251.67 353.108" stroke="#101820FF" stroke-width="3" stroke-linecap="round"/>
<line x1="302.563" y1="95.2436" x2="249.563" y2="0.243601" stroke="#101820FF"/>
<line x1="134" y1="0.5" x2="250" y2="0.50001" stroke="#101820FF"/>
</svg>
