<svg width='88' height='88' xmlns="http://www.w3.org/2000/svg" enable-background="new 0 0 24 24" viewBox="0 0 24 24"><path fill="#506AF6" d="M22,0H2C0.896,0,0,0.895,0,2v20c0,1.104,0.895,2,2,2h20c1.104,0,2-0.896,2-2V2C24,0.895,23.104,0,22,0L22,0z" /><path fill="#FFF" d="M11.038 3.492h2.427c.578 0 1.045.467 1.045 1.045v.825c0 .096-.092.161-.177.134-.66-.181-1.346-.273-2.042-.273-.724 0-1.432.096-2.112.295-.092.026-.182-.044-.182-.134V4.537H9.993C9.993 3.959 10.46 3.492 11.038 3.492L11.038 3.492zM12.286 19.634c-3.75 0-6.783-3.038-6.783-6.782s3.038-6.782 6.783-6.782c3.751 0 6.783 3.032 6.783 6.782C19.069 16.592 16.031 19.634 12.286 19.634L12.286 19.634z" /><path fill="#506AF6" d="M12.286,8.067c-2.641,0-4.779,2.137-4.779,4.778c0,2.641,2.138,4.778,4.779,4.778c2.642,0,4.78-2.137,4.78-4.778C17.065,10.205,14.922,8.067,12.286,8.067L12.286,8.067z" /><path fill="#465CD6" d="M12,0H2C0.896,0,0,0.895,0,2v20c0,1.104,0.895,2,2,2h10v-4.372c-3.617-0.15-6.497-3.127-6.497-6.776c0-3.648,2.885-6.626,6.497-6.776V5.228c-0.623,0.023-1.232,0.118-1.82,0.29c-0.013,0.004-0.027,0.006-0.04,0.006c-0.076,0-0.142-0.062-0.142-0.14V4.537H9.993c0-0.578,0.467-1.045,1.045-1.045H12V0L12,0z" /><path fill="#DEDEDE" d="M12 3.492h-.962c-.578 0-1.045.467-1.045 1.045h.005v.847c0 .077.066.14.142.14.013 0 .026-.002.04-.006.588-.172 1.198-.267 1.82-.29V3.492L12 3.492zM12 6.077c-3.613.15-6.497 3.127-6.497 6.776 0 3.648 2.88 6.626 6.497 6.776v-2.013c-2.508-.148-4.493-2.225-4.493-4.77 0-2.545 1.985-4.622 4.493-4.77V6.077L12 6.077z" /><path fill="#465CD6" d="M12,8.076c-2.508,0.148-4.493,2.225-4.493,4.77c0,2.545,1.985,4.622,4.493,4.77V8.076L12,8.076z" /><polygon points="15.211 14.116 15.212 14.116 15.214 14.114" /><path fill="#FFF" d="M5.47,6.521L5.47,6.521l0.494-0.493c0.407-0.407,1.066-0.407,1.474,0L7.85,6.44L7.834,6.655C7.501,6.896,7.185,7.159,6.891,7.453C6.601,7.742,6.334,8.058,6.097,8.385L5.883,8.401L5.47,7.988C5.062,7.587,5.062,6.928,5.47,6.521L5.47,6.521z" /><path fill="#DEDEDE" d="M5.655,6.336L5.471,6.52L5.47,6.521c-0.407,0.407-0.407,1.066,0,1.467l0.413,0.413l0.214-0.016c0.22-0.305,0.467-0.6,0.734-0.872L5.655,6.336L5.655,6.336z" /><path fill="#FFF" d="M15.648,11.098V11.1l-3.156,1.638c-0.097,0.048-0.204-0.021-0.204-0.123V9.053l0.146-0.14c1.403,0.054,2.62,0.841,3.275,1.987L15.648,11.098L15.648,11.098z" /><path fill="#DEDEDE" d="M14.352,9.498l-1.861,3.24l0,0l0,0l3.156-1.638v-0.002l0.059-0.198C15.38,10.328,14.913,9.845,14.352,9.498L14.352,9.498z" /></svg>
